<svg width="60" height="60" viewBox="0 0 60 60" fill="none" xmlns="http://www.w3.org/2000/svg">
<g clip-path="url(#clip0_106_2462)">
<path d="M23.8832 43.574L43.5685 23.8892C47.9932 25.48 53.0149 24.3864 56.3959 21.0053C60.075 17.3263 61.0445 11.683 58.807 7.00967L58.5337 6.43792L52.667 12.3046H47.6952V7.33285L53.5619 1.46615L52.9902 1.19286C48.3164 -1.04469 42.6735 -0.0751423 38.9945 3.6039C35.6134 6.98495 34.5198 12.0062 36.1106 16.4314L16.4258 36.1166C12.0006 34.5254 6.97895 35.6194 3.59837 39C-1.19946 43.7978 -1.19946 51.6036 3.59837 56.4015C8.39619 61.1993 16.202 61.1993 20.9998 56.4015C24.3804 53.0209 25.4744 47.9992 23.8832 43.574ZM8.57014 51.4297C6.50654 49.3665 6.507 46.0354 8.57014 43.9718C10.6333 41.9087 13.9644 41.9087 16.028 43.9718C18.0912 46.0354 18.0912 49.3665 16.028 51.4297C13.9644 53.4928 10.6333 53.4933 8.57014 51.4297Z" fill="#BBDCFF"/>
<path d="M20.9998 56.4015C16.202 61.1993 8.39621 61.1993 3.59839 56.4015L8.57016 51.4297C10.6333 53.4933 13.9644 53.4929 16.028 51.4297C18.0912 49.3666 18.0912 46.0355 16.028 43.9719L47.6952 12.3047H52.667L58.5337 6.43799L58.807 7.00974C61.0445 11.6835 60.075 17.3264 56.3959 21.0054C53.0149 24.3864 47.9937 25.48 43.5685 23.8893L23.8833 43.5741C25.4745 47.9993 24.3804 53.0209 20.9998 56.4015Z" fill="#9ABADB"/>
<path d="M10.9221 13.4088L13.4082 10.9227L35.0531 32.5676L32.567 35.0537L10.9221 13.4088Z" fill="#E0F4FF"/>
<path d="M4.69702 0.123169L0.123047 4.69714L9.45593 17.3612L17.3611 9.45605L4.69702 0.123169Z" fill="#E0F4FF"/>
<path d="M32.5675 35.0542L10.9226 13.4093L12.1654 12.166L33.8103 33.8109L32.5675 35.0542Z" fill="#BBDCFF"/>
<path d="M2.41003 2.41016L13.4083 13.4088L9.45593 17.3612L0.123047 4.69714L2.41003 2.41016Z" fill="#BBDCFF"/>
<path d="M40.0255 32.5681L36.2965 28.8391L28.8386 36.2965L32.5676 40.0255C34.6312 42.0891 37.9623 42.0886 40.0255 40.0255C42.0891 37.9623 42.0891 34.6312 40.0255 32.5681Z" fill="#7C8388"/>
<path d="M40.0255 40.0255C37.9623 42.0887 34.6312 42.0891 32.5676 40.0255L28.8386 36.2966L32.5676 32.5681L40.0255 40.0255Z" fill="#575F64"/>
<path d="M57.4268 57.4269C53.9964 60.8574 48.4277 60.8574 44.9972 57.4269L31.3247 43.7544L36.2965 38.7826L40.0254 40.0259L38.7826 36.297L43.7544 31.3252L57.4268 44.9977C60.8578 48.4282 60.8578 53.9964 57.4268 57.4269Z" fill="#FF5E5B"/>
<path d="M57.4268 57.427C53.9964 60.8575 48.4277 60.8575 44.9972 57.427L31.3247 43.7545L36.2965 38.7827L40.0254 40.026L57.4268 57.427Z" fill="#ED3E3C"/>
<path d="M36.2961 38.7827L38.7823 36.297L51.2115 48.7262L48.7258 51.2123L36.2961 38.7827Z" fill="#ED3E3C"/>
<path d="M36.2961 38.7826L37.539 37.5398L49.9686 49.9695L48.7258 51.2123L36.2961 38.7826Z" fill="#D62F2D"/>
</g>
<defs>
<clipPath id="clip0_106_2462">
<rect width="60" height="60" fill="white"/>
</clipPath>
</defs>
</svg>
